<?xml version="1.0" encoding="UTF-8"?>
<svg width="483px" height="794px" viewBox="0 0 483 794" version="1.1" xmlns="http://www.w3.org/2000/svg" xmlns:xlink="http://www.w3.org/1999/xlink">
    <!-- Generator: Sketch 52.2 (67145) - http://www.bohemiancoding.com/sketch -->
    <title>Path</title>
    <desc>Created with Sketch.</desc>
    <defs>
        <linearGradient x1="42.5068694%" y1="16.0453519%" x2="40.7947794%" y2="87.6814709%" id="linearGradient-1">
            <stop stop-color="#F9D423" offset="0%"></stop>
            <stop stop-color="#EA8179" offset="53.5992174%"></stop>
            <stop stop-color="#E14FAD" offset="100%"></stop>
        </linearGradient>
        <path d="M21.3927454,950.377963 C60.7280987,921.858863 221.754345,968.747794 308.392746,1119.14247 C395.031146,1269.53715 464.392746,1213.75288 564.031146,1148.50402 C663.669546,1083.25516 745.219585,1103.79925 861.031146,1185.1549 C952.031146,1249.08085 1019.03115,1273.79888 1133.03115,1193.67836 C1247.03115,1113.55783 1347.03115,1080.31634 1528.03115,1249.08085 C1709.03115,1417.84536 1485.39275,1371.43689 1485.39275,1371.43689 L67.3927454,1293.87341 C67.3927454,1293.87341 -17.9426079,978.897062 21.3927454,950.377963 Z" id="path-2"></path>
        <filter x="-2.6%" y="-16.9%" width="105.1%" height="122.5%" filterUnits="objectBoundingBox" id="filter-3">
            <feOffset dx="0" dy="-33" in="SourceAlpha" result="shadowOffsetOuter1"></feOffset>
            <feGaussianBlur stdDeviation="8" in="shadowOffsetOuter1" result="shadowBlurOuter1"></feGaussianBlur>
            <feColorMatrix values="0 0 0 0 0   0 0 0 0 0   0 0 0 0 0  0 0 0 0.0693217844 0" type="matrix" in="shadowBlurOuter1"></feColorMatrix>
        </filter>
    </defs>
    <g id="Page-1" stroke="none" stroke-width="1" fill="none" fill-rule="evenodd">
        <g id="Landing-Final" transform="translate(-280.000000, 0.000000)" fill-rule="nonzero">
            <g id="waves" transform="translate(949.924539, 631.578042) rotate(100.000000) translate(-949.924539, -631.578042) translate(-389.575461, -141.421958)">
                <g id="Path" transform="translate(804.883755, 1159.874553) rotate(3.000000) translate(-804.883755, -1159.874553) ">
                    <use fill="black" fill-opacity="1" filter="url(#filter-3)" xlink:href="#path-2"></use>
                    <use fill="url(#linearGradient-1)" xlink:href="#path-2"></use>
                </g>
            </g>
        </g>
    </g>
</svg>